<?xml version="1.0" standalone="no"?>
<!DOCTYPE svg PUBLIC "-//W3C//DTD SVG 20010904//EN"
 "http://www.w3.org/TR/2001/REC-SVG-20010904/DTD/svg10.dtd">
<svg version="1.0" xmlns="http://www.w3.org/2000/svg"
 width="297.000000pt" height="301.000000pt" viewBox="0 0 297.000000 301.000000"
 preserveAspectRatio="xMidYMid meet">

<g transform="translate(0.000000,301.000000) scale(0.100000,-0.100000)"
fill="#000000" stroke="none">
<path d="M0 1505 l0 -1505 1485 0 1485 0 0 1505 0 1505 -1485 0 -1485 0 0
-1505z m1557 1183 c52 -79 77 -129 97 -197 31 -104 21 -148 -57 -268 -54 -83
-117 -206 -117 -230 -1 -27 -16 3 -24 47 -3 19 -33 91 -67 160 -53 110 -60
132 -60 185 0 39 8 84 24 127 25 70 132 238 151 238 6 0 30 -28 53 -62z m-359
-321 c37 -24 82 -58 99 -76 41 -40 94 -135 125 -221 23 -64 23 -69 23 -517 0
-350 -3 -453 -12 -453 -7 0 -28 33 -46 72 -19 40 -60 107 -93 148 -106 133
-119 166 -154 374 -14 84 -31 145 -56 201 -45 100 -52 141 -43 241 11 107 63
274 86 274 2 0 35 -19 71 -43z m671 25 c24 -46 54 -192 55 -272 1 -83 0 -88
-47 -178 -53 -103 -89 -217 -107 -337 -17 -115 -40 -167 -122 -281 -74 -102
-99 -145 -115 -199 -6 -21 -16 -31 -32 -33 -23 -4 -24 -3 -17 58 5 38 4 60 -2
56 -6 -4 -8 136 -5 377 6 429 4 417 87 557 59 100 126 171 211 224 39 24 73
45 77 45 4 1 12 -7 17 -17z m-1044 -373 c97 -13 162 -34 193 -63 36 -32 70
-106 81 -177 37 -228 45 -262 72 -321 17 -34 44 -85 61 -111 17 -26 28 -50 25
-53 -12 -12 -96 36 -154 88 -45 39 -88 66 -154 93 -171 72 -259 146 -298 249
-21 58 -41 266 -28 300 7 18 32 17 202 -5z m1493 -121 c-4 -130 -6 -147 -30
-193 -47 -90 -127 -153 -273 -215 -97 -41 -114 -51 -187 -112 -49 -40 -124
-76 -135 -64 -2 1 16 41 40 88 30 59 49 114 61 174 45 234 80 336 131 384 35
33 186 65 379 79 17 1 18 -7 14 -141z m-1319 -506 c79 -31 143 -77 256 -183
162 -153 187 -167 253 -149 30 8 70 40 168 136 151 147 176 165 269 196 60 19
91 23 210 23 152 0 195 -7 195 -31 0 -29 -72 -154 -117 -204 -57 -63 -149
-110 -231 -117 -34 -3 -110 0 -169 6 -121 14 -148 8 -196 -37 -15 -15 -34 -49
-43 -78 -14 -48 -17 -52 -52 -58 -61 -10 -127 -7 -144 7 -8 6 -18 28 -22 47
-9 48 -45 97 -85 116 -29 14 -45 14 -130 4 -53 -7 -134 -11 -181 -9 -154 7
-260 80 -350 244 -22 40 -40 79 -40 88 0 22 32 25 205 23 126 -2 159 -6 204
-24z m2 -477 c105 -49 173 -64 344 -76 108 -8 188 -8 286 0 153 12 214 28 312
77 71 36 87 36 118 -2 12 -15 10 -20 -21 -46 -83 -70 -293 -152 -442 -173 -53
-7 -61 -19 -58 -88 1 -23 1 -106 1 -184 l-1 -143 -65 0 -65 0 0 204 0 204 -79
11 c-105 16 -211 45 -274 78 -77 38 -167 104 -167 121 0 13 27 52 36 52 1 0
35 -16 75 -35z"/>
<path d="M1492 1255 c0 -16 2 -22 5 -12 2 9 2 23 0 30 -3 6 -5 -1 -5 -18z"/>
</g>
</svg>
